# xmcd CD database file
#
# Track frame offsets:
#	187
#	20859
#	37557
#
# Disc length: 775 seconds
#
# Revision: 0
# Processed by: cddbd v1.5.1PL2 Copyright (c) Steve Scherf et al.
# Submitted via: CDex 1.51
#
DISCID=18030503
DTITLE=Ｃｌａｓｓ - 夏にかかるＷｅｄｄｉｎｇＳｏｎｇ
DYEAR=1995
DGENRE=JPop
TTITLE0=夏にかかるＷｅｄｄｉｎｇＳｏｎｇ
TTITLE1=ＮＯ！ＮＯ！ＮＯ！
TTITLE2=夏にかかるＷｅｄｄｉｎｇＳｏｎｇ（ＯｒｉｇｉｎａｌＫａｒａｏｋｅ）
EXTD=YEAR: 1995/5/25
EXTT0=
EXTT1=
EXTT2=
PLAYORDER=
